HIERARCHY
ROOT Hips
{
	OFFSET 0.000000 0.000000 0.000000
	CHANNELS 6 Xposition Yposition Zposition Zrotation Yrotation Xrotation 
	JOINT LHipJoint
	{
		OFFSET 0.000000 0.000000 0.000000
		CHANNELS 3 Zrotation Yrotation Xrotation
		JOINT LeftUpLeg
		{
			OFFSET 1.363060 -1.794630 0.839290
			CHANNELS 3 Zrotation Yrotation Xrotation
			JOINT LeftLeg
			{
				OFFSET 2.448110 -6.726130 0.000000
				CHANNELS 3 Zrotation Yrotation Xrotation
				JOINT LeftFoot
				{
					OFFSET 2.562200 -7.039590 0.000000
					CHANNELS 3 Zrotation Yrotation Xrotation
					JOINT LeftToeBase
					{
						OFFSET 0.157640 -0.433110 2.322550
						CHANNELS 3 Zrotation Yrotation Xrotation
						End Site
						{
							OFFSET 0.000000 0.000000 0.000000
						}
					}
				}
			}
		}
	}
	JOINT RHipJoint
	{
		OFFSET 0.000000 0.000000 0.000000
		CHANNELS 3 Zrotation Yrotation Xrotation
		JOINT RightUpLeg
		{
			OFFSET -1.305520 -1.794630 0.839290
			CHANNELS 3 Zrotation Yrotation Xrotation
			JOINT RightLeg
			{
				OFFSET -2.542530 -6.985550 0.000000
				CHANNELS 3 Zrotation Yrotation Xrotation
				JOINT RightFoot
				{
					OFFSET -2.568260 -7.056230 0.000000
					CHANNELS 3 Zrotation Yrotation Xrotation
					JOINT RightToeBase
					{
						OFFSET -0.164730 -0.452590 2.363150
						CHANNELS 3 Zrotation Yrotation Xrotation
						End Site
						{
							OFFSET 0.000000 0.000000 0.000000
						}
					}
				}
			}
		}
	}
}
MOTION
Frames: 30
Frame Time: 0.008333
-17.959417 14.573690 -0.588645 -12.148374 85.996093 29.888568 -7.832397 -2.370939 1.729548 -11.451313 -7.420989 -97.565011 -0.350556 6.013841 64.039106 2.180801 7.506337 -9.995304 0.334100 -0.000000 -22.099200 10.545136 -2.791003 -2.452714 7.021825 -1.910749 -9.547320 1.703846 -1.282053 27.769721 -1.025931 -4.444044 -5.733682 -0.260700 0.000000 -73.973500
-17.726146 14.565124 -0.586941 -11.979430 85.929454 29.901151 -7.852843 -2.412398 1.491760 -11.867498 -7.011098 -97.007208 -0.254603 6.112447 65.457042 2.208242 7.514710 -11.063718 0.134600 0.000000 -20.848600 10.615236 -2.841550 -2.474157 6.930954 -1.847292 -10.220547 1.475115 -1.532622 30.414098 -1.120599 -5.191212 -4.709751 -0.398501 0.000000 -71.588600
-17.497036 14.561217 -0.585895 -11.626225 85.887915 30.109142 -7.869663 -2.447369 1.263738 -12.278949 -6.643213 -96.347725 -0.182454 6.186016 66.719795 2.254205 7.560859 -12.299055 -0.090800 -0.000001 -19.825200 10.694558 -2.859616 -2.514047 6.874386 -1.836717 -11.126886 1.248158 -1.780570 33.359088 -1.266278 -6.160326 -4.136844 -0.523400 -0.000000 -68.543500
-17.271981 14.561910 -0.585572 -11.145219 85.870481 30.464404 -7.885324 -2.476294 1.052284 -12.661186 -6.322925 -95.611491 -0.128698 6.235501 67.830764 2.315222 7.644000 -13.619601 -0.332500 -0.000000 -19.118699 10.781666 -2.846255 -2.570242 6.855783 -1.882137 -12.260007 1.028209 -2.024195 36.547573 -1.457023 -7.333908 -4.015838 -0.624600 -0.000000 -64.970200
-17.051035 14.567228 -0.586033 -10.593364 85.875244 30.916708 -7.901917 -2.499602 0.862104 -12.995900 -6.053417 -94.820086 -0.088605 6.262099 68.792974 2.387459 7.761775 -14.950979 -0.581500 -0.000000 -18.789300 10.874683 -2.803467 -2.641143 6.876895 -1.984218 -13.609256 0.819304 -2.263751 39.917612 -1.685126 -8.674750 -4.327421 -0.682200 -0.000000 -60.998700
-16.834408 14.577175 -0.587364 -10.038287 85.897818 31.403046 -7.921528 -2.517583 0.696135 -13.269818 -5.833113 -93.994024 -0.058424 6.267837 69.609944 2.467208 7.911020 -16.233620 -0.829600 0.000000 -18.849300 10.970544 -2.733757 -2.724838 6.939952 -2.137829 -15.161263 0.623454 -2.500487 43.406530 -1.941379 -10.129875 -5.032662 -0.671100 0.000000 -56.754300
-16.621768 14.591760 -0.589745 -9.623710 85.922186 31.784563 -7.949117 -2.527833 0.555824 -13.474475 -5.646115 -93.156793 -0.035917 6.257706 70.286116 2.550171 8.083548 -17.423606 -1.069500 -0.000000 -19.269801 11.061957 -2.638512 -2.817687 7.051773 -2.325307 -16.902703 0.439643 -2.734025 46.954613 -2.215162 -11.635151 -6.074972 -0.567700 0.000000 -52.302199
-16.413324 14.610806 -0.593142 -9.397294 85.943159 32.013853 -7.985134 -2.531467 0.439134 -13.611429 -5.485378 -92.319502 -0.019861 6.234368 70.827224 2.634111 8.276213 -18.501275 -1.297500 0.000000 -19.966601 11.145980 -2.520391 -2.917092 7.211638 -2.534098 -18.818722 0.266810 -2.966138 50.508463 -2.494876 -13.120290 -7.390922 -0.354699 -0.000000 -47.767000
-16.208942 14.634134 -0.597674 -9.472496 85.945412 31.977047 -8.032421 -2.526956 0.342956 -13.685331 -5.330953 -91.494776 -0.010463 6.202899 71.239845 2.716733 8.481514 -19.461963 -1.511300 0.000000 -20.838401 11.216243 -2.380411 -3.018532 7.423877 -2.740406 -20.894769 0.101902 -3.195872 54.020382 -2.768546 -14.516147 -8.908543 -0.027600 -0.000000 -43.214000
-16.008790 14.661357 -0.603316 -9.926172 85.917040 31.594989 -8.091816 -2.513520 0.262243 -13.706010 -5.164426 -90.688024 -0.008668 6.167546 71.532248 2.796862 8.693090 -20.316184 -1.711100 0.000000 -21.778100 11.268393 -2.219485 -3.117234 7.690557 -2.920096 -23.114835 -0.058081 -3.421898 57.448812 -3.024765 -15.760616 -10.554178 0.402900 0.000000 -38.723500
-15.812729 14.692072 -0.610020 -10.810122 85.847516 30.810398 -8.162768 -2.490295 0.190655 -13.686066 -4.967233 -89.898600 -0.015939 6.131975 71.713681 2.874008 8.904742 -21.084364 -1.899100 0.000000 -22.686700 11.299542 -2.038093 -3.208447 8.013449 -3.049502 -25.461054 -0.215741 -3.642176 60.757817 -3.253329 -16.801953 -12.255895 0.911600 -0.000001 -34.369100
-15.620546 14.725688 -0.617676 -12.126060 85.731726 29.615034 -8.242474 -2.457440 0.121055 -13.638495 -4.724895 -89.120825 -0.033596 6.098528 71.795054 2.948083 9.111071 -21.790404 -2.078500 -0.000000 -23.497300 11.309519 -1.836827 -3.287756 8.392298 -3.107604 -27.915021 -0.372833 -3.854922 63.916909 -3.445885 -17.602250 -13.944435 1.461200 -0.000001 -30.257200
-15.431983 14.761562 -0.626157 -13.835777 85.569113 28.038672 -8.326859 -2.415700 0.046160 -13.575858 -4.427053 -88.344605 -0.062686 6.068393 71.788357 3.019077 9.306858 -22.458854 -2.252900 -0.000000 -24.169300 11.299855 -1.616720 -3.351540 8.825508 -3.077871 -30.456031 -0.530042 -4.058694 66.899848 -3.596306 -18.138308 -15.558207 2.008500 0.000000 -26.494101
-15.247024 14.799095 -0.635309 -15.860866 85.364688 26.150392 -8.411155 -2.367070 -0.040947 -13.508298 -4.069024 -87.555962 -0.103720 6.041374 71.705933 3.086823 9.487279 -23.111072 -2.425600 -0.000000 -24.687600 11.273341 -1.379619 -3.397364 9.308643 -2.949741 -33.062431 -0.687019 -4.253029 69.684736 -3.700899 -18.402077 -17.044770 2.510900 -0.000000 -23.192700
-15.065008 14.837619 -0.644962 -18.095054 85.128795 24.047915 -8.490859 -2.314863 -0.146100 -13.443110 -3.652539 -86.740967 -0.156402 6.016337 71.560684 3.150877 9.648466 -23.761435 -2.598800 -0.000000 -25.069600 11.232888 -1.128359 -3.424199 9.834630 -2.719449 -35.713938 -0.842465 -4.438635 72.254317 -3.758501 -18.399657 -18.364961 2.932900 -0.000000 -20.462200
-14.885823 14.876594 -0.654986 -20.434453 84.874578 21.826774 -8.563035 -2.262682 -0.273516 -13.384311 -3.184014 -85.886048 -0.219719 5.991701 71.364845 3.210407 9.787226 -24.416589 -2.773100 0.000000 -25.347200 11.180310 -0.866244 -3.432418 10.393328 -2.389510 -38.390940 -0.994568 -4.616740 74.596198 -3.770743 -18.151282 -19.495394 3.251899 0.000000 -18.379200
-14.709031 14.915592 -0.665258 -22.792466 84.615608 19.566624 -8.626388 -2.213784 -0.425348 -13.332767 -2.673530 -84.980979 -0.292031 5.965890 71.129478 3.264476 9.901944 -25.075791 -2.947200 0.000001 -25.567600 11.116083 -0.596497 -3.423437 10.972699 -1.967594 -41.077414 -1.140985 -4.788716 76.702383 -3.741979 -17.688862 -20.431694 3.460500 -0.000001 -16.964401
-14.534204 14.954291 -0.675712 -25.110713 84.364228 17.321794 -8.681125 -2.170484 -0.601565 -13.285735 -2.132667 -84.019972 -0.371239 5.937645 70.864040 3.311966 9.991965 -25.731363 -3.118900 -0.000000 -25.780200 11.039696 -0.322073 -3.399229 11.560340 -1.464436 -43.760012 -1.279052 -4.955567 78.569284 -3.679197 -17.054450 -21.187678 3.566100 0.000001 -16.168800
-14.360903 14.992475 -0.686304 -27.365725 84.129677 15.113873 -8.728246 -2.133799 -0.800213 -13.238583 -1.573457 -83.002680 -0.454906 5.906167 70.576292 3.351990 10.058714 -26.370708 -3.284600 0.000000 -26.034700 10.949996 -0.045068 -3.361754 12.144306 -0.892099 -46.430723 -1.405646 -5.117872 80.195984 -3.591458 -16.296095 -21.793541 3.587500 0.000000 -15.868799
-14.188730 15.030050 -0.696996 -29.559110 83.917711 12.942571 -8.768997 -2.103759 -1.017767 -13.185469 -1.006380 -81.934725 -0.540621 5.871218 70.272421 3.383932 10.104735 -26.979258 -3.440600 -0.000000 -26.370700 10.845793 0.232574 -3.312237 12.714665 -0.261803 -49.084808 -1.517366 -5.275755 81.583059 -3.489208 -15.464948 -22.289424 3.549200 0.000000 -15.888600
-14.017182 15.066930 -0.707713 -31.700726 83.732119 10.802483 -8.804435 -2.079956 -1.249904 -13.121860 -0.441198 -80.825806 -0.626402 5.832835 69.957211 3.407715 10.133178 -27.545638 -3.584100 -0.000000 -26.794300 10.726111 0.508697 -3.251025 13.262114 0.416524 -51.721302 -1.610523 -5.429383 82.731786 -3.382992 -14.608867 -22.721086 3.477300 0.000000 -16.027299
-13.846084 15.103268 -0.718569 -33.852864 83.567010 8.635573 -8.835494 -2.061273 -1.491448 -13.038209 0.120234 -79.689431 -0.709910 5.791585 69.632726 3.423582 10.150588 -28.052499 -3.712000 0.000000 -27.361700 10.589865 0.781257 -3.176527 13.784781 1.138733 -54.338895 -1.681736 -5.577104 83.634681 -3.283341 -13.777325 -23.113541 3.391500 0.000000 -16.177100
-13.674813 15.138959 -0.729264 -36.001742 83.424396 6.464736 -8.862615 -2.047554 -1.738355 -12.937536 0.671079 -78.540246 -0.790686 5.747941 69.301767 3.432442 10.159268 -28.499818 -3.824400 -0.000000 -28.018400 10.436531 1.046200 -3.086830 14.273022 1.898678 -56.939665 -1.727401 -5.719158 84.289492 -3.198769 -13.004852 -23.502511 3.310300 0.000000 -16.198000
-13.503033 15.174068 -0.739711 -38.171308 83.298131 4.273376 -8.886387 -2.038176 -1.986527 -12.818843 1.212003 -77.392705 -0.868090 5.702628 68.964847 3.435510 10.164278 -28.884355 -3.921500 -0.000000 -28.764200 10.265430 1.299098 -2.978569 14.723573 2.694900 -59.520964 -1.744546 -5.853627 84.683353 -3.136909 -12.325605 -23.895214 3.244300 -0.000000 -16.078100
-13.330268 15.208542 -0.749625 -40.349847 83.184607 2.079154 -8.907564 -2.032583 -2.233376 -12.686485 1.745267 -76.257047 -0.942788 5.656500 68.622450 3.433984 10.166739 -29.213637 -4.005300 0.000000 -29.539300 10.076223 1.534411 -2.848892 15.131611 3.523402 -62.076271 -1.730297 -5.978617 84.802267 -3.103491 -11.763257 -24.295020 3.200900 -0.000000 -15.829100
-13.156267 15.242279 -0.758697 -42.507266 83.078629 -0.081250 -8.927316 -2.030479 -2.476088 -12.545595 2.273348 -75.144404 -1.014951 5.610117 68.273238 3.429070 10.170787 -29.486514 -4.076600 0.000000 -30.383400 9.868252 1.745985 -2.693174 15.492265 4.384814 -64.599217 -1.683113 -6.090845 84.626610 -3.103581 -11.341918 -24.682915 3.182600 0.000000 -15.553300
-12.980664 15.275154 -0.766510 -44.585754 82.978934 -2.146879 -8.947085 -2.030682 -2.713581 -12.405343 2.798994 -74.058869 -1.085774 5.564170 67.916042 3.421551 10.176215 -29.709917 -4.137200 0.000000 -31.289400 9.641708 1.927915 -2.508885 15.799335 5.274160 -67.076552 -1.601805 -6.186804 84.138563 -3.140681 -11.076575 -25.042260 3.190600 -0.000000 -15.334100
-12.802819 15.306920 -0.772668 -46.538915 82.885439 -4.071165 -8.968120 -2.030511 -2.945732 -12.274186 3.326731 -72.997698 -1.157241 5.519537 67.550118 3.411491 10.177371 -29.897792 -4.188701 -0.000000 -32.198600 9.398532 2.075197 -2.296141 16.051580 6.179501 -69.487566 -1.485270 -6.263100 83.324562 -3.216745 -10.971996 -25.362881 3.225000 0.000000 -15.216200
-12.622451 15.337393 -0.776759 -48.306782 82.799124 -5.795266 -8.991689 -2.027314 -3.172186 -12.159795 3.857868 -71.957532 -1.230208 5.476540 67.173964 3.398426 10.171356 -30.050573 -4.230300 0.000000 -33.149500 9.141089 2.183968 -2.054164 16.246942 7.091941 -71.814145 -1.334014 -6.315898 82.172062 -3.333316 -11.032281 -25.624997 3.282300 0.000000 -15.259000
-12.439180 15.366303 -0.778447 -49.845720 82.722861 -7.277611 -9.018505 -2.017853 -3.393074 -12.067201 4.392868 -70.932044 -1.305502 5.435466 66.786559 3.381137 10.152235 -30.168171 -4.260400 -0.000000 -34.171500 8.873291 2.251910 -1.784008 16.387668 7.998826 -74.036721 -1.148713 -6.342206 80.675258 -3.490540 -11.251007 -25.819008 3.357400 0.000000 -15.452200
